<svg width="24" height="25" viewBox="0 0 24 25" fill="none" xmlns="http://www.w3.org/2000/svg">
<g clip-path="url(#clip0_88_245)">
<path d="M12 5.84375C11.1458 5.84375 10.3438 6 9.59375 6.3125C8.84375 6.64583 8.19271 7.08854 7.64062 7.64062C7.08854 8.19271 6.64583 8.84375 6.3125 9.59375C6 10.3438 5.84375 11.1458 5.84375 12C5.84375 12.8542 6 13.6562 6.3125 14.4062C6.64583 15.1563 7.08854 15.8073 7.64062 16.3594C8.19271 16.9115 8.84375 17.3542 9.59375 17.6875C10.3438 18 11.1458 18.1562 12 18.1562C12.8542 18.1562 13.6562 18 14.4062 17.6875C15.1563 17.3542 15.8073 16.9115 16.3594 16.3594C16.9115 15.8073 17.3542 15.1563 17.6875 14.4062C18 13.6562 18.1562 12.8542 18.1562 12C18.1562 11.1458 18 10.3438 17.6875 9.59375C17.3542 8.84375 16.9115 8.19271 16.3594 7.64062C15.8073 7.08854 15.1563 6.64583 14.4062 6.3125C13.6562 6 12.8542 5.84375 12 5.84375ZM12 16C10.8958 16 9.95313 15.6094 9.17188 14.8281C8.39062 14.0469 8 13.1042 8 12C8 10.8958 8.39062 9.95313 9.17188 9.17188C9.95313 8.39062 10.8958 8 12 8C13.1042 8 14.0469 8.39062 14.8281 9.17188C15.6094 9.95313 16 10.8958 16 12C16 13.1042 15.6094 14.0469 14.8281 14.8281C14.0469 15.6094 13.1042 16 12 16ZM19.8438 5.59375C19.8438 6.01042 19.7031 6.35417 19.4219 6.625C19.1406 6.89583 18.8021 7.03125 18.4062 7.03125C18.0104 7.03125 17.6719 6.89583 17.3906 6.625C17.1094 6.35417 16.9688 6.01042 16.9688 5.59375C16.9688 5.19792 17.1094 4.86458 17.3906 4.59375C17.6719 4.32292 18.0104 4.1875 18.4062 4.1875C18.8021 4.1875 19.1406 4.32292 19.4219 4.59375C19.7031 4.86458 19.8438 5.19792 19.8438 5.59375ZM23.375 4.15625C23.0625 3.34375 22.6042 2.63542 22 2.03125C21.3958 1.42708 20.6979 0.968752 19.9062 0.65625L19.875 0.625C19.4375 0.458333 18.974 0.328125 18.4844 0.234375C17.9948 0.140625 17.4896 0.09375 16.9688 0.09375H16.9375C16.3125 0.052083 15.7396 0.026042 15.2188 0.015625C14.6979 0.005208 13.625 0 12 0C10.375 0 9.30209 0.005208 8.78125 0.015625C8.26041 0.026042 7.6875 0.052083 7.0625 0.09375C6.54166 0.09375 6.03125 0.145833 5.53125 0.25C5.03125 0.354167 4.55209 0.489583 4.09375 0.65625L4.15625 0.625C3.34375 0.958335 2.63542 1.42708 2.03125 2.03125C1.42708 2.63542 0.968752 3.32291 0.65625 4.09375L0.625 4.15625C0.458333 4.57292 0.328125 5.03125 0.234375 5.53125C0.140625 6.03125 0.083333 6.54166 0.0625 7.0625C0.041667 7.70834 0.026042 8.28646 0.015625 8.79688C0.005208 9.30729 0 10.375 0 12C0 13.625 0.005208 14.6979 0.015625 15.2188C0.026042 15.7396 0.041667 16.3229 0.0625 16.9688C0.083333 17.4688 0.140625 17.9583 0.234375 18.4375C0.328125 18.9167 0.458333 19.3958 0.625 19.875C0.958335 20.6875 1.42708 21.3958 2.03125 22C2.63542 22.6042 3.32291 23.0625 4.09375 23.375H4.15625C4.57292 23.5625 5.02604 23.7083 5.51562 23.8125C6.00521 23.9167 6.51041 23.9688 7.03125 23.9688H7.0625C7.70834 24.0104 8.28646 24.0365 8.79688 24.0469C9.30729 24.0573 10.375 24.0625 12 24.0625C13.625 24.0625 14.6979 24.0573 15.2188 24.0469C15.7396 24.0365 16.3229 24.0104 16.9688 23.9688C17.4896 23.9688 18 23.9167 18.5 23.8125C19 23.7083 19.4792 23.5729 19.9375 23.4062L19.875 23.4375C20.6875 23.1042 21.3958 22.6354 22 22.0312C22.6042 21.4271 23.0625 20.7396 23.375 19.9688V19.9062C23.5625 19.4479 23.7031 18.974 23.7969 18.4844C23.8906 17.9948 23.9375 17.5 23.9375 17C23.9583 16.3542 23.974 15.776 23.9844 15.2656C23.9948 14.7552 24 13.6875 24 12.0625C24 10.4167 24 9.33854 24 8.82812C24 8.31771 23.9792 7.73959 23.9375 7.09375C23.9375 6.57291 23.8854 6.05729 23.7812 5.54688C23.6771 5.03646 23.5313 4.55209 23.3438 4.09375L23.375 4.15625ZM21.75 16.8438C21.75 17.2604 21.7135 17.6615 21.6406 18.0469C21.5677 18.4323 21.4583 18.8021 21.3125 19.1562L21.3438 19.0938C21.1354 19.6354 20.8333 20.099 20.4375 20.4844C20.0417 20.8698 19.5938 21.1667 19.0938 21.375H19.0625C18.7292 21.5208 18.375 21.625 18 21.6875C17.625 21.75 17.2396 21.7917 16.8438 21.8125C16.1979 21.8333 15.6302 21.849 15.1406 21.8594C14.651 21.8698 13.5938 21.875 11.9688 21.875C10.3437 21.875 9.28646 21.8698 8.79688 21.8594C8.30729 21.849 7.73959 21.8333 7.09375 21.8125C6.67708 21.7917 6.28125 21.7448 5.90625 21.6719C5.53125 21.599 5.16667 21.5 4.8125 21.375H4.84375C4.32291 21.1875 3.86458 20.8958 3.46875 20.5C3.07292 20.1042 2.77083 19.6458 2.5625 19.125V19.0938C2.4375 18.7812 2.33854 18.4375 2.26562 18.0625C2.19271 17.6875 2.15625 17.2917 2.15625 16.875C2.11458 16.25 2.09375 15.6875 2.09375 15.1875C2.09375 14.6875 2.09375 13.625 2.09375 12C2.09375 10.375 2.09375 9.31771 2.09375 8.82812C2.09375 8.33854 2.11458 7.77084 2.15625 7.125C2.15625 6.72917 2.19271 6.33854 2.26562 5.95312C2.33854 5.56771 2.44792 5.19792 2.59375 4.84375L2.5625 4.875C2.77083 4.35416 3.07292 3.89583 3.46875 3.5C3.86458 3.10417 4.32291 2.80208 4.84375 2.59375C5.17708 2.46875 5.53125 2.36979 5.90625 2.29688C6.28125 2.22396 6.67708 2.1875 7.09375 2.1875C7.71875 2.16667 8.28125 2.15104 8.78125 2.14062C9.28125 2.13021 10.3437 2.125 11.9688 2.125C13.5938 2.125 14.651 2.125 15.1406 2.125C15.6302 2.125 16.1979 2.14583 16.8438 2.1875C17.2396 2.1875 17.625 2.22396 18 2.29688C18.375 2.36979 18.7396 2.47917 19.0938 2.625L19.0625 2.59375C19.5833 2.80208 20.0417 3.10417 20.4375 3.5C20.8333 3.89583 21.1354 4.35416 21.3438 4.875C21.4688 5.20833 21.5677 5.5625 21.6406 5.9375C21.7135 6.3125 21.75 6.69792 21.75 7.09375V7.125C21.7708 7.75 21.7865 8.3125 21.7969 8.8125C21.8073 9.3125 21.8125 10.375 21.8125 12C21.8125 13.625 21.8125 14.6823 21.8125 15.1719C21.8125 15.6615 21.8021 16.2187 21.7812 16.8438H21.75Z" fill="white"/>
</g>
<defs>
<clipPath id="clip0_88_245">
<rect width="24" height="24.0625" fill="white"/>
</clipPath>
</defs>
</svg>
