<svg width="34" height="24" viewBox="0 0 34 24" fill="none" xmlns="http://www.w3.org/2000/svg">
<g clip-path="url(#clip0_88_235)">
<path d="M33.2834 3.77258C33.0976 3.05016 32.7393 2.42141 32.2084 1.88629C31.6776 1.35117 31.0539 0.976589 30.3372 0.762542H30.2974C29.6339 0.57525 28.5722 0.428094 27.1124 0.32107C25.6261 0.240803 24.1397 0.173913 22.6534 0.120401C21.167 0.0668892 19.8532 0.0401338 18.7119 0.0401338C17.5706 0.0133784 17 0 17 0C17 0 16.4294 0.0133784 15.2881 0.0401338C14.1468 0.0401338 12.833 0.0602007 11.3466 0.100334C9.86026 0.140468 8.37393 0.200669 6.88759 0.280936C5.42778 0.387961 4.36612 0.535116 3.70258 0.722408C2.9594 0.936455 2.32241 1.31103 1.79157 1.84615C1.26073 2.38127 0.902421 3.01003 0.716628 3.73244C0.345041 5.097 0.132709 6.81604 0.0796253 8.88963C0.0265413 10.9632 0 12 0 12C0 12 0.0265413 13.0435 0.0796253 15.1304C0.132709 17.2174 0.33177 18.9164 0.676815 20.2274C0.862608 20.9766 1.22755 21.6187 1.77166 22.1538C2.31577 22.689 2.94613 23.0635 3.66276 23.2776C4.35285 23.4381 5.42778 23.5719 6.88759 23.6789C8.34739 23.786 9.82708 23.8662 11.3267 23.9197C12.8263 23.9732 14.1468 24 15.2881 24C16.4028 24 16.9602 24 16.9602 24C16.9602 24 17.5308 24 18.6721 24C19.8134 24 21.1339 23.9799 22.6335 23.9398C24.1331 23.8997 25.6128 23.8261 27.0726 23.7191C28.5324 23.6388 29.5941 23.505 30.2576 23.3177C31.0008 23.1037 31.6378 22.7291 32.1686 22.194C32.6995 21.6589 33.071 21.0435 33.2834 20.3478V20.3077C33.6284 18.9699 33.8341 17.2575 33.9005 15.1706C33.9668 13.0836 34 12.0401 34 12.0401C34 12.0401 33.9735 10.9967 33.9204 8.9097C33.8673 6.82273 33.655 5.11037 33.2834 3.77258ZM13.5761 17.1371L13.6159 6.86288L22.4543 12L13.5761 17.1371Z" fill="white"/>
</g>
<defs>
<clipPath id="clip0_88_235">
<rect width="34" height="24" fill="white"/>
</clipPath>
</defs>
</svg>
