<svg width="59" height="38" viewBox="0 0 59 38" fill="none" xmlns="http://www.w3.org/2000/svg">
<mask id="mask0_127_226" style="mask-type:luminance" maskUnits="userSpaceOnUse" x="0" y="0" width="59" height="38">
<path d="M58.4494 0H0.550781V37.7854H58.4494V0Z" fill="white"/>
</mask>
<g mask="url(#mask0_127_226)">
<path fill-rule="evenodd" clip-rule="evenodd" d="M45.4049 0.45355C44.9464 0.476958 44.7854 0.500062 44.6135 0.567246C44.3573 0.66711 44.0084 0.753902 43.8576 0.754966C43.6781 0.756334 43.2143 0.870334 43.1535 0.928094C43.0728 1.00485 42.7005 1.12691 42.4547 1.15731C42.3021 1.17616 42.2269 1.20625 42.1745 1.26979C42.1059 1.35263 41.8699 1.4455 41.6166 1.48958C41.5498 1.50113 41.4429 1.5668 41.3706 1.64067C41.2826 1.73035 41.1859 1.78385 41.0614 1.81197C40.9615 1.83447 40.8295 1.8977 40.7675 1.95257C40.7056 2.00745 40.5666 2.09363 40.4584 2.14394C40.3504 2.19441 40.2401 2.26813 40.2137 2.30795C40.1871 2.34777 40.0812 2.42241 39.9784 2.47393C39.8756 2.52531 39.7228 2.63369 39.6391 2.71485C39.5551 2.79587 39.4376 2.87248 39.378 2.88494C39.3183 2.89741 39.2697 2.92735 39.2697 2.95152C39.2697 3.01141 39.1313 3.13255 38.9944 3.19289C38.9319 3.22041 38.8711 3.27467 38.8595 3.31358C38.8476 3.35265 38.7935 3.41253 38.7391 3.44673C38.5324 3.57669 37.2774 4.92113 37.2386 5.05413C37.225 5.1008 37.1593 5.18288 37.0924 5.23623C37.0258 5.28958 36.9613 5.38169 36.9488 5.44067C36.9355 5.50421 36.8759 5.58416 36.8029 5.63645C36.7349 5.68509 36.6793 5.74543 36.679 5.77066C36.6785 5.90442 36.481 6.23487 36.402 6.23487C36.3771 6.23487 36.3322 6.3244 36.3018 6.43369C36.2717 6.54313 36.2034 6.6819 36.1501 6.74209C36.0424 6.86415 35.9434 7.05233 35.9072 7.20357C35.8939 7.25844 35.8462 7.35617 35.8004 7.42093C35.755 7.48568 35.6751 7.6851 35.6227 7.86431C35.5706 8.04352 35.5017 8.21285 35.4698 8.24066C35.3911 8.30937 35.3517 8.42914 35.2944 8.77403C35.266 8.94412 35.1997 9.15768 35.1355 9.2849C35.046 9.46183 35.015 9.58997 34.9725 9.95705C34.9091 10.5056 34.8355 10.8569 34.7475 11.034C34.6613 11.2072 34.6424 37.2132 34.7284 37.3035C34.7924 37.371 44.5226 37.3965 44.6763 37.33C44.7307 37.3063 44.7753 37.2585 44.7753 37.2236C44.7753 37.1886 44.7927 37.1418 44.8141 37.1193C44.8413 37.0907 44.85 35.6823 44.843 32.3222C44.8375 29.7063 44.8346 27.4725 44.8364 27.3582C44.8381 27.2439 44.8384 26.7506 44.837 26.2622C44.8323 24.7871 44.83 24.8038 45.0538 24.6922C45.3905 24.5246 46.9743 24.6763 47.0892 24.8872C47.1051 24.9166 47.1729 24.9643 47.2395 24.9936C47.306 25.0228 47.3903 25.0949 47.4262 25.1539C47.4624 25.2127 47.5365 25.3004 47.5903 25.3487C47.6445 25.3971 47.7125 25.5161 47.7411 25.6132C47.7701 25.7105 47.8361 25.8968 47.8876 26.0276L47.9817 26.2651L47.9814 31.5774C47.9814 34.4991 47.9745 36.8965 47.9664 36.905C47.9311 36.9421 48.0194 37.2731 48.0767 37.319C48.1751 37.3975 57.7136 37.3956 57.8928 37.3169L58.0176 37.2622V31.0882C58.0176 25.1713 58.0147 24.9046 57.9501 24.6722C57.8291 24.2353 57.7973 24.0584 57.746 23.5416C57.6835 22.9081 57.6664 22.8254 57.5764 22.7214C57.5304 22.6684 57.4684 22.472 57.4059 22.1813C57.3491 21.919 57.2837 21.7051 57.2516 21.679C57.2209 21.6538 57.1514 21.4972 57.0973 21.3311C57.0431 21.1648 56.9806 21.0117 56.9583 20.9909C56.8888 20.9264 56.7629 20.6778 56.7241 20.5286C56.7015 20.4406 56.6474 20.3584 56.5826 20.313C56.5221 20.271 56.461 20.1822 56.439 20.1049C56.4178 20.0307 56.34 19.9029 56.2661 19.8205C56.0557 19.5862 56.0511 19.3274 56.252 19.0466C56.333 18.9334 56.417 18.7718 56.4384 18.6876C56.4601 18.6036 56.5223 18.4922 56.5768 18.4403C56.6315 18.3883 56.6963 18.2804 56.7209 18.2005C56.7861 17.9898 56.8434 17.8852 56.9508 17.7806C57.0128 17.7204 57.046 17.6487 57.046 17.5751C57.046 17.5131 57.0599 17.4531 57.0773 17.4418C57.0944 17.4307 57.1184 17.3698 57.1306 17.3064C57.1424 17.2432 57.1911 17.1506 57.2386 17.1009C57.2933 17.0433 57.3341 16.9439 57.3503 16.8279C57.3908 16.5364 57.5034 16.1433 57.5784 16.031C57.6687 15.8955 57.689 15.7967 57.7481 15.2094C57.7753 14.9393 57.8404 14.5567 57.8928 14.3593C58.0824 13.6444 58.0512 11.6047 57.8413 11.0253C57.821 10.9695 57.7871 10.6977 57.7657 10.4216C57.7191 9.82238 57.6673 9.54558 57.5793 9.42824C57.5115 9.33734 57.4204 8.98029 57.3683 8.59953C57.3451 8.43036 57.3156 8.35664 57.247 8.29736C57.1807 8.23975 57.1358 8.13305 57.079 7.8976C57.0365 7.72097 56.9748 7.54967 56.9421 7.51699C56.8816 7.45649 56.8017 7.27379 56.7253 7.02132C56.7018 6.94456 56.6353 6.82828 56.5771 6.76277C56.5189 6.69725 56.4535 6.57307 56.4317 6.48658C56.4089 6.39553 56.3342 6.26573 56.2543 6.17817C56.1729 6.08925 56.0997 5.96097 56.076 5.86673C56.0537 5.77841 56.0108 5.68493 55.9804 5.65879C55.8296 5.52929 55.7865 5.47305 55.7865 5.40541C55.7865 5.36467 55.7219 5.27697 55.6426 5.21009C55.5633 5.14336 55.4987 5.06994 55.4987 5.04699C55.4987 5.02419 55.4014 4.8956 55.2827 4.76123C55.164 4.62686 55.0668 4.50678 55.0668 4.49447C55.0668 4.46164 54.2678 3.60922 54.1983 3.56803C54.13 3.52729 53.7504 3.17982 53.5539 2.97766C53.4792 2.90075 53.3596 2.81229 53.2881 2.78097C53.2169 2.74966 53.1489 2.69737 53.1367 2.66454C53.1249 2.63186 53.0464 2.57228 52.9624 2.53215C52.8788 2.49202 52.7407 2.39824 52.6556 2.32376C52.4671 2.15838 52.4211 2.13269 52.2575 2.10169C52.1866 2.08831 52.0809 2.02812 52.0222 1.96793C51.9634 1.90758 51.8308 1.8293 51.7275 1.79373C51.6241 1.75832 51.482 1.68141 51.4119 1.62289C51.3419 1.56452 51.233 1.50478 51.1696 1.49034C51.0008 1.45158 50.6766 1.29487 50.6766 1.2517C50.6766 1.23133 50.5837 1.19577 50.4699 1.17266C50.0444 1.08633 49.9364 1.05334 49.8408 0.980686C49.7204 0.88903 49.303 0.79403 48.6797 0.716814C48.5014 0.694622 48.2747 0.645374 48.1757 0.607374C47.7863 0.457502 46.6115 0.392294 45.4049 0.45355ZM12.7313 1.21051C12.4739 1.22404 12.061 1.27025 11.8136 1.31296C11.5662 1.35582 11.1453 1.40993 10.8781 1.43334C9.96256 1.51329 9.79711 1.53701 9.7521 1.59477C9.68479 1.68095 9.4144 1.76789 9.09104 1.80711C8.85105 1.83629 8.7587 1.86791 8.58645 1.97948C8.47051 2.05457 8.34255 2.11613 8.30203 2.11613C8.15656 2.11613 7.84564 2.23666 7.76994 2.32239C7.72651 2.37149 7.58264 2.44429 7.44122 2.48853C7.28388 2.53793 7.17257 2.59645 7.14391 2.64493C7.10251 2.71485 6.74629 2.90957 6.65959 2.90957C6.64019 2.90957 6.59402 2.95015 6.55696 2.99955C6.5199 3.04895 6.41221 3.12738 6.31784 3.17359C6.22332 3.21995 6.10231 3.31313 6.04861 3.38077C5.99505 3.44841 5.89793 3.52593 5.83279 3.55298C5.76766 3.58004 5.65302 3.66744 5.57804 3.74724C5.50306 3.82689 5.41187 3.89209 5.37554 3.89209C5.33588 3.89209 5.2913 3.93739 5.26481 4.00457C5.23644 4.07647 5.17043 4.14031 5.08156 4.18135C4.99239 4.22269 4.92263 4.29033 4.88658 4.36998C4.85344 4.4434 4.77802 4.52031 4.70261 4.55801C4.63226 4.59297 4.56119 4.65939 4.5444 4.7056C4.52776 4.75165 4.4577 4.82598 4.38866 4.87082C4.31976 4.91551 4.24651 5.00276 4.22596 5.06462C4.20526 5.12709 4.13376 5.21115 4.06515 5.25371C3.98279 5.30478 3.93444 5.36771 3.92011 5.44325C3.90593 5.51773 3.85787 5.58157 3.77942 5.63021C3.71066 5.67277 3.64205 5.75683 3.6173 5.82888C3.59371 5.89758 3.51149 6.01629 3.43464 6.09275C3.35792 6.16921 3.2663 6.29537 3.23112 6.37319C3.19595 6.45101 3.11272 6.56851 3.04628 6.63433C2.97984 6.70014 2.92542 6.78602 2.92542 6.82509C2.92527 6.90838 2.82699 7.08637 2.70497 7.22469C2.65749 7.2785 2.59901 7.39995 2.57484 7.49449C2.55081 7.58919 2.48278 7.72432 2.42387 7.79485C2.36496 7.86537 2.29577 8.00476 2.27029 8.10477C2.24453 8.20646 2.1807 8.32958 2.12584 8.384C2.05911 8.45012 2.01482 8.54801 1.98746 8.69013C1.92218 9.02878 1.84068 9.25997 1.75051 9.36212C1.70404 9.41486 1.66583 9.4936 1.66554 9.53737C1.66424 9.72312 1.51558 10.3431 1.44987 10.4371C1.2423 10.7339 1.23868 10.9754 1.23448 24.712C1.23072 36.6171 1.23376 37.278 1.29325 37.3236C1.38227 37.392 11.1655 37.3947 11.2307 37.3263C11.264 37.2914 11.2738 35.8376 11.2738 31.0122V24.7433L11.3808 24.6384C11.4396 24.5808 11.559 24.5147 11.6461 24.4917C11.7764 24.4572 21.7076 24.4282 22.228 24.4607C22.3163 24.4664 22.3375 24.4493 22.3623 24.354C22.4077 24.1792 22.3977 13.9384 22.352 13.8806C22.3163 13.8352 21.0544 13.8289 12.1089 13.8302C11.2054 13.8302 11.2259 13.8451 11.2588 13.2171C11.2863 12.6897 11.3188 12.5485 11.4448 12.4094C11.4992 12.3494 11.5682 12.2491 11.5981 12.1866C11.6305 12.1189 11.7249 12.0326 11.832 11.9729C11.9307 11.9177 12.0475 11.8336 12.0913 11.7859C12.2112 11.656 12.7211 11.6038 13.8895 11.6021C14.5422 11.6012 14.876 11.5872 14.8918 11.5605C14.9345 11.488 14.9104 1.50919 14.8673 1.3578L14.8282 1.22069L14.2116 1.19622C13.563 1.17038 13.4809 1.17114 12.7313 1.21051ZM39.2877 1.2517C39.2202 1.2742 34.8532 1.28651 27.6408 1.28469C18.2503 1.28225 16.0962 1.29077 16.0717 1.33044C16.0172 1.41921 16.0153 11.5464 16.0699 11.5939C16.103 11.6227 17.1712 11.6383 19.6419 11.6462C23.542 11.6585 23.326 11.6446 23.434 11.8934C23.4625 11.959 23.4736 15.5168 23.4739 24.6275C23.4744 36.5532 23.4778 37.2731 23.5365 37.3199C23.6366 37.3996 33.3933 37.3923 33.4943 37.312C33.5658 37.2552 33.5664 37.1999 33.5841 24.5319L33.6023 11.8086L33.6999 11.4118C33.7572 11.1779 33.8139 10.8057 33.8374 10.5049C33.8869 9.87588 33.9592 9.45803 34.0339 9.37124C34.0652 9.33491 34.1049 9.22228 34.1222 9.12105C34.1396 9.01966 34.1717 8.83073 34.1934 8.70107C34.2398 8.42793 34.2751 8.3311 34.3773 8.19795C34.4178 8.1449 34.474 7.98713 34.5018 7.84729C34.5449 7.63084 34.65 7.40086 34.738 7.33079C34.751 7.3203 34.7875 7.20341 34.8193 7.07087C34.8555 6.92009 34.9238 6.76687 35.002 6.66138C35.0709 6.56866 35.1383 6.43916 35.1517 6.37334C35.1826 6.22347 35.2999 6.04593 35.3679 6.04593C35.3963 6.04593 35.4194 6.01933 35.4194 5.98681C35.4194 5.87463 35.5929 5.5302 35.6791 5.47077C35.7266 5.43793 35.7854 5.34233 35.8094 5.25827C35.8334 5.17421 35.8951 5.07055 35.9466 5.02799C35.9979 4.98558 36.0806 4.86991 36.1302 4.77096C36.1799 4.67201 36.2749 4.53171 36.3412 4.4589C36.7219 4.04212 36.7867 3.96597 36.7867 3.93633C36.7867 3.8886 36.8979 3.76776 37.0117 3.69191C37.0661 3.65558 37.1107 3.60937 37.1107 3.58916C37.1107 3.53398 37.2615 3.36313 37.3101 3.36313C37.3339 3.36313 37.3949 3.29641 37.4462 3.21493C37.4977 3.13346 37.5767 3.05442 37.6219 3.03953C37.7059 3.01171 37.8303 2.88585 37.8303 2.82885C37.8303 2.81153 37.8946 2.7527 37.9731 2.69813C38.0515 2.64357 38.125 2.56863 38.1363 2.53154C38.1473 2.49461 38.2006 2.44505 38.2545 2.42134C38.308 2.39778 38.4475 2.28576 38.5639 2.17252C38.6919 2.04833 38.8213 1.95744 38.8899 1.94391C38.9727 1.92765 39.0147 1.89162 39.043 1.81258C39.07 1.73841 39.1151 1.69676 39.1849 1.68156C39.3867 1.63793 39.4666 1.57212 39.4857 1.43456C39.4993 1.33469 39.5227 1.3008 39.5847 1.29153C39.629 1.28499 39.6654 1.26371 39.6654 1.24441C39.6654 1.19972 39.4298 1.20428 39.2877 1.2517ZM46.7343 10.9557C46.868 10.9788 46.9378 11.0165 47.016 11.1084C47.073 11.1756 47.1749 11.2466 47.2423 11.2661C47.4097 11.3146 47.6798 11.6172 47.7267 11.8086C47.7472 11.8917 47.7863 12.0127 47.8138 12.0773C47.9041 12.289 47.9203 12.5316 47.8541 12.6782C47.821 12.751 47.777 12.9125 47.7562 13.037C47.7183 13.264 47.6164 13.4523 47.5316 13.4523C47.5067 13.4523 47.4369 13.5246 47.3764 13.6131C47.2884 13.7417 47.2241 13.7887 47.0553 13.8482C46.9393 13.8891 46.8208 13.9466 46.7919 13.9759C46.6309 14.1399 46.1122 14.1466 45.9503 13.9867C45.9052 13.9422 45.851 13.9057 45.8302 13.9057C45.6985 13.9057 45.4304 13.7384 45.3537 13.6081C45.3074 13.5295 45.224 13.433 45.1684 13.3936C44.8355 13.1588 44.8231 11.9426 45.1499 11.6196C45.2133 11.5573 45.2868 11.4597 45.3137 11.4029C45.3479 11.3307 45.4003 11.2921 45.4883 11.2749C45.5572 11.2612 45.6768 11.1902 45.7538 11.1173C45.9318 10.9484 46.3203 10.8844 46.7343 10.9557Z" fill="white"/>
</g>
</svg>
