<svg width="75" height="46" viewBox="0 0 200 125" fill="none" xmlns="http://www.w3.org/2000/svg">
<g clip-path="url(#clip0_28_59)">
<path fill-rule="evenodd" clip-rule="evenodd" d="M154.941 1.492C153.357 1.569 152.801 1.645 152.207 1.866C151.322 2.1945 150.117 2.48 149.596 2.4835C148.976 2.488 147.374 2.863 147.164 3.053C146.885 3.3055 145.599 3.707 144.75 3.807C144.223 3.869 143.963 3.968 143.782 4.177C143.545 4.4495 142.73 4.755 141.855 4.9C141.624 4.938 141.255 5.154 141.005 5.397C140.701 5.692 140.367 5.868 139.937 5.9605C139.592 6.0345 139.136 6.2425 138.922 6.423C138.708 6.6035 138.228 6.887 137.854 7.0525C137.481 7.2185 137.1 7.461 137.009 7.592C136.917 7.723 136.551 7.9685 136.196 8.138C135.841 8.307 135.313 8.6635 135.024 8.9305C134.734 9.197 134.328 9.449 134.122 9.49C133.916 9.531 133.748 9.6295 133.748 9.709C133.748 9.906 133.27 10.3045 132.797 10.503C132.581 10.5935 132.371 10.772 132.331 10.9C132.29 11.0285 132.103 11.2255 131.915 11.338C131.201 11.7655 126.866 16.188 126.732 16.6255C126.685 16.779 126.458 17.049 126.227 17.2245C125.997 17.4 125.774 17.703 125.731 17.897C125.685 18.106 125.479 18.369 125.227 18.541C124.992 18.701 124.8 18.8995 124.799 18.9825C124.797 19.4225 124.115 20.5095 123.842 20.5095C123.756 20.5095 123.601 20.804 123.496 21.1635C123.392 21.5235 123.156 21.98 122.972 22.178C122.6 22.5795 122.258 23.1985 122.133 23.696C122.087 23.8765 121.922 24.198 121.764 24.411C121.607 24.624 121.331 25.28 121.15 25.8695C120.97 26.459 120.732 27.016 120.622 27.1075C120.35 27.3335 120.214 27.7275 120.016 28.862C119.918 29.4215 119.689 30.124 119.467 30.5425C119.158 31.1245 119.051 31.546 118.904 32.7535C118.685 34.558 118.431 35.7135 118.127 36.296C117.829 36.866 117.764 122.412 118.061 122.709C118.282 122.931 151.893 123.015 152.424 122.796C152.612 122.718 152.766 122.561 152.766 122.446C152.766 122.331 152.826 122.177 152.9 122.103C152.994 122.009 153.024 117.376 153 106.323C152.981 97.718 152.971 90.37 152.977 89.994C152.983 89.618 152.984 87.9955 152.979 86.389C152.963 81.5365 152.955 81.5915 153.728 81.2245C154.891 80.673 160.362 81.172 160.759 81.866C160.814 81.9625 161.048 82.1195 161.278 82.216C161.508 82.312 161.799 82.549 161.923 82.743C162.048 82.9365 162.304 83.225 162.49 83.384C162.677 83.543 162.912 83.9345 163.011 84.254C163.111 84.574 163.339 85.187 163.517 85.617L163.842 86.3985L163.841 103.873C163.841 113.484 163.817 121.37 163.789 121.398C163.667 121.52 163.972 122.609 164.17 122.76C164.51 123.018 197.459 123.012 198.078 122.753L198.509 122.573V102.264C198.509 82.8005 198.499 81.923 198.276 81.1585C197.858 79.7215 197.748 79.1395 197.571 77.4395C197.355 75.3555 197.296 75.0835 196.985 74.7415C196.826 74.567 196.612 73.921 196.396 72.965C196.2 72.102 195.974 71.3985 195.863 71.3125C195.757 71.2295 195.517 70.7145 195.33 70.168C195.143 69.621 194.927 69.1175 194.85 69.049C194.61 68.837 194.175 68.019 194.041 67.5285C193.963 67.239 193.776 66.9685 193.552 66.819C193.343 66.681 193.132 66.389 193.056 66.1345C192.983 65.8905 192.714 65.47 192.459 65.199C191.732 64.4285 191.716 63.577 192.41 62.6535C192.69 62.281 192.98 61.7495 193.054 61.4725C193.129 61.196 193.344 60.8295 193.532 60.659C193.721 60.488 193.945 60.133 194.03 59.87C194.255 59.177 194.453 58.833 194.824 58.489C195.038 58.291 195.153 58.055 195.153 57.813C195.153 57.609 195.201 57.4115 195.261 57.3745C195.32 57.338 195.403 57.1375 195.445 56.929C195.486 56.721 195.654 56.4165 195.818 56.253C196.007 56.0635 196.148 55.7365 196.204 55.355C196.344 54.396 196.733 53.103 196.992 52.7335C197.304 52.288 197.374 51.963 197.578 50.031C197.672 49.1425 197.897 47.884 198.078 47.2345C198.733 44.883 198.625 38.1735 197.9 36.2675C197.83 36.084 197.713 35.19 197.639 34.2815C197.478 32.3105 197.299 31.4 196.995 31.014C196.761 30.715 196.446 29.5405 196.266 28.288C196.186 27.7315 196.084 27.489 195.847 27.294C195.618 27.1045 195.463 26.7535 195.267 25.979C195.12 25.398 194.907 24.8345 194.794 24.727C194.585 24.528 194.309 23.927 194.045 23.0965C193.964 22.844 193.734 22.4615 193.533 22.246C193.332 22.0305 193.106 21.622 193.031 21.3375C192.952 21.038 192.694 20.611 192.418 20.323C192.137 20.0305 191.884 19.6085 191.802 19.2985C191.725 19.008 191.577 18.7005 191.472 18.6145C190.951 18.1885 190.802 18.0035 190.802 17.781C190.802 17.647 190.579 17.3585 190.305 17.1385C190.031 16.919 189.808 16.6775 189.808 16.602C189.808 16.527 189.472 16.104 189.062 15.662C188.652 15.22 188.316 14.825 188.316 14.7845C188.316 14.6765 185.556 11.8725 185.316 11.737C185.08 11.603 183.769 10.46 183.09 9.795C182.832 9.542 182.419 9.251 182.172 9.148C181.926 9.045 181.691 8.873 181.649 8.765C181.608 8.6575 181.337 8.4615 181.047 8.3295C180.758 8.1975 180.281 7.889 179.987 7.644C179.336 7.1 179.177 7.0155 178.612 6.9135C178.367 6.8695 178.002 6.6715 177.799 6.4735C177.596 6.275 177.138 6.0175 176.781 5.9005C176.424 5.784 175.933 5.531 175.691 5.3385C175.449 5.1465 175.073 4.95 174.854 4.9025C174.271 4.775 173.151 4.2595 173.151 4.1175C173.151 4.0505 172.83 3.9335 172.437 3.8575C170.967 3.5735 170.594 3.465 170.264 3.226C169.848 2.9245 168.406 2.612 166.253 2.358C165.637 2.285 164.854 2.123 164.512 1.998C163.167 1.505 159.109 1.2905 154.941 1.492ZM42.076 3.982C41.187 4.0265 39.7605 4.1785 38.906 4.319C38.0515 4.46 36.5975 4.638 35.6745 4.715C32.512 4.978 31.9405 5.056 31.785 5.246C31.5525 5.5295 30.6185 5.8155 29.5015 5.9445C28.6725 6.0405 28.3535 6.1445 27.7585 6.5115C27.358 6.7585 26.916 6.961 26.776 6.961C26.2735 6.961 25.1995 7.3575 24.938 7.6395C24.788 7.801 24.291 8.0405 23.8025 8.186C23.259 8.3485 22.8745 8.541 22.7755 8.7005C22.6325 8.9305 21.402 9.571 21.1025 9.571C21.0355 9.571 20.876 9.7045 20.748 9.867C20.62 10.0295 20.248 10.2875 19.922 10.4395C19.5955 10.592 19.1775 10.8985 18.992 11.121C18.807 11.3435 18.4715 11.5985 18.2465 11.6875C18.0215 11.7765 17.6255 12.064 17.3665 12.3265C17.1075 12.5885 16.7925 12.803 16.667 12.803C16.53 12.803 16.376 12.952 16.2845 13.173C16.1865 13.4095 15.9585 13.6195 15.6515 13.7545C15.3435 13.8905 15.1025 14.113 14.978 14.375C14.8635 14.6165 14.603 14.8695 14.3425 14.9935C14.0995 15.1085 13.854 15.327 13.796 15.479C13.7385 15.6305 13.4965 15.875 13.258 16.0225C13.02 16.1695 12.767 16.4565 12.696 16.66C12.6245 16.8655 12.3775 17.142 12.1405 17.282C11.856 17.45 11.689 17.657 11.6395 17.9055C11.5905 18.1505 11.4245 18.3605 11.1535 18.5205C10.916 18.6605 10.679 18.937 10.5935 19.174C10.512 19.4 10.228 19.7905 9.96252 20.042C9.69752 20.2935 9.38102 20.7085 9.25952 20.9645C9.13802 21.2205 8.85052 21.607 8.62102 21.8235C8.39152 22.04 8.20352 22.3225 8.20352 22.451C8.20302 22.725 7.86352 23.3105 7.44202 23.7655C7.27802 23.9425 7.07602 24.342 6.99252 24.653C6.90952 24.9645 6.67452 25.409 6.47102 25.641C6.26752 25.873 6.02852 26.3315 5.94051 26.6605C5.85151 26.995 5.63102 27.4 5.44152 27.579C5.21102 27.7965 5.05802 28.1185 4.96352 28.586C4.73802 29.7 4.45651 30.4605 4.14501 30.7965C3.98451 30.97 3.85251 31.229 3.85151 31.373C3.84701 31.984 3.33351 34.0235 3.10651 34.3325C2.38951 35.309 2.37701 36.1035 2.36251 81.2895C2.34951 120.451 2.36001 122.625 2.56551 122.775C2.87301 123 36.6675 123.009 36.8925 122.784C37.0075 122.669 37.0415 117.887 37.0415 102.014V81.3925L37.411 81.0475C37.614 80.858 38.0265 80.6405 38.3275 80.565C38.7775 80.4515 73.083 80.356 74.8805 80.463C75.1855 80.4815 75.259 80.4255 75.3445 80.112C75.5015 79.537 75.467 45.85 75.309 45.66C75.1855 45.5105 70.8265 45.49 39.926 45.494C36.805 45.494 36.876 45.543 36.9895 43.4775C37.0845 41.7425 37.197 41.278 37.632 40.8205C37.82 40.623 38.0585 40.293 38.1615 40.0875C38.2735 39.865 38.5995 39.581 38.9695 39.3845C39.3105 39.203 39.714 38.9265 39.8655 38.7695C40.2795 38.342 42.041 38.1705 46.077 38.165C48.3315 38.162 49.4845 38.116 49.539 38.028C49.6865 37.7895 49.6035 4.9645 49.4545 4.4665L49.3195 4.0155L47.1895 3.935C44.949 3.85 44.6655 3.8525 42.076 3.982ZM133.81 4.1175C133.577 4.1915 118.492 4.232 93.578 4.226C61.1405 4.218 53.6995 4.246 53.615 4.3765C53.4265 4.6685 53.42 37.9815 53.6085 38.138C53.723 38.2325 57.413 38.284 65.9475 38.31C79.4195 38.3505 78.6735 38.3045 79.0465 39.123C79.145 39.339 79.1835 51.042 79.1845 81.0115C79.186 120.241 79.198 122.609 79.4005 122.763C79.7465 123.025 113.449 123.001 113.798 122.737C114.045 122.55 114.047 122.368 114.108 80.697L114.171 38.844L114.508 37.539C114.706 36.7695 114.902 35.545 114.983 34.5555C115.154 32.4865 115.404 31.112 115.662 30.8265C115.77 30.707 115.907 30.3365 115.967 30.0035C116.027 29.67 116.138 29.0485 116.213 28.622C116.373 27.7235 116.495 27.405 116.848 26.967C116.988 26.7925 117.182 26.2735 117.278 25.8135C117.427 25.1015 117.79 24.345 118.094 24.1145C118.139 24.08 118.265 23.6955 118.375 23.2595C118.5 22.7635 118.736 22.2595 119.006 21.9125C119.244 21.6075 119.477 21.1815 119.523 20.965C119.63 20.472 120.035 19.888 120.27 19.888C120.368 19.888 120.448 19.8005 120.448 19.6935C120.448 19.3245 121.047 18.1915 121.345 17.996C121.509 17.888 121.712 17.5735 121.795 17.297C121.878 17.0205 122.091 16.6795 122.269 16.5395C122.446 16.4 122.732 16.0195 122.903 15.694C123.075 15.3685 123.403 14.907 123.632 14.6675C124.947 13.2965 125.171 13.046 125.171 12.9485C125.171 12.7915 125.555 12.394 125.948 12.1445C126.136 12.025 126.29 11.873 126.29 11.8065C126.29 11.625 126.811 11.063 126.979 11.063C127.061 11.063 127.272 10.8435 127.449 10.5755C127.627 10.3075 127.9 10.0475 128.056 9.9985C128.346 9.907 128.776 9.493 128.776 9.3055C128.776 9.2485 128.998 9.055 129.269 8.8755C129.54 8.696 129.794 8.4495 129.833 8.3275C129.871 8.206 130.055 8.043 130.241 7.965C130.426 7.8875 130.908 7.519 131.31 7.1465C131.752 6.738 132.199 6.439 132.436 6.3945C132.722 6.341 132.867 6.2225 132.965 5.9625C133.058 5.7185 133.214 5.5815 133.455 5.5315C134.152 5.388 134.428 5.1715 134.494 4.719C134.541 4.3905 134.622 4.279 134.836 4.2485C134.989 4.227 135.115 4.157 135.115 4.0935C135.115 3.9465 134.301 3.9615 133.81 4.1175ZM159.533 36.0385C159.995 36.1145 160.236 36.2385 160.506 36.541C160.703 36.762 161.055 36.9955 161.288 37.0595C161.866 37.219 162.799 38.2145 162.961 38.844C163.032 39.1175 163.167 39.5155 163.262 39.728C163.574 40.4245 163.63 41.2225 163.401 41.7045C163.287 41.944 163.135 42.4755 163.063 42.885C162.932 43.6315 162.58 44.251 162.287 44.251C162.201 44.251 161.96 44.489 161.751 44.78C161.447 45.203 161.225 45.3575 160.642 45.5535C160.241 45.688 159.832 45.877 159.732 45.9735C159.176 46.513 157.384 46.535 156.825 46.009C156.669 45.8625 156.482 45.7425 156.41 45.7425C155.955 45.7425 155.029 45.192 154.764 44.7635C154.604 44.505 154.316 44.1875 154.124 44.058C152.974 43.2855 152.931 39.285 154.06 38.2225C154.279 38.0175 154.533 37.6965 154.626 37.5095C154.744 37.272 154.925 37.145 155.229 37.0885C155.467 37.0435 155.88 36.81 156.146 36.57C156.761 36.0145 158.103 35.804 159.533 36.0385Z" fill="#313131"/>
</g>
<defs>
<clipPath id="clip0_28_59">
<rect width="200" height="124.294" fill="white"/>
</clipPath>
</defs>
</svg>
